<?xml version="1.0" encoding="UTF-8"?><svg id="Layer_2" xmlns="http://www.w3.org/2000/svg" xmlns:xlink="http://www.w3.org/1999/xlink" viewBox="0 0 1038.14 390.35"><defs><style>.cls-1{fill:#fff;}.cls-2{letter-spacing:.3em;}.cls-3{letter-spacing:.54em;}.cls-4{opacity:.07;}.cls-5{letter-spacing:.29em;}.cls-6{letter-spacing:.29em;}.cls-7{letter-spacing:.02em;}.cls-8{font-family:Betterlett-Regular, Betterlett;font-size:134.22px;}.cls-8,.cls-9{fill:#fffcf8;}.cls-10{letter-spacing:.55em;}.cls-11{letter-spacing:0em;}.cls-9{font-family:Montserrat-Medium, Montserrat;font-size:38px;}.cls-12{letter-spacing:.54em;}.cls-13{letter-spacing:0em;}.cls-14{fill:url(#linear-gradient);}.cls-15{letter-spacing:.54em;}.cls-16{letter-spacing:.55em;}</style><linearGradient id="linear-gradient" x1="1.74" y1="195.6" x2="1036.4" y2="195.6" gradientUnits="userSpaceOnUse"><stop offset="0" stop-color="#8ad3bf"/><stop offset=".11" stop-color="#8dd0ba"/><stop offset=".23" stop-color="#95c8ad"/><stop offset=".36" stop-color="#a4bb97"/><stop offset=".49" stop-color="#b9a978"/><stop offset=".55" stop-color="#c4a069"/><stop offset=".57" stop-color="#cba174"/><stop offset=".6" stop-color="#d9a48a"/><stop offset=".65" stop-color="#e4a79b"/><stop offset=".71" stop-color="#eca8a7"/><stop offset=".78" stop-color="#f0a9ae"/><stop offset="1" stop-color="#f2aab0"/></linearGradient></defs><g id="Layer_1-2"><rect class="cls-14" x="1.74" y="1.24" width="1034.67" height="388.72"/><g class="cls-4"><g><path class="cls-1" d="M10.85,0H.15c-.05,.13-.1,.26-.15,.4V31.89C3.33,21.26,6.94,10.63,10.85,0Z"/><path class="cls-1" d="M1038.14,365.01c-6.26,5.04-12.86,9.73-19.83,14.04-6.84,4.23-13.82,7.99-20.94,11.3h22.4c6.32-3.71,12.44-7.78,18.37-12.16v-13.17Z"/><path class="cls-1" d="M1038.14,314.12c-38.23,10.42-71.09,29.66-98.86,58.1,11-39.79,10.46-79.29-1.03-118.96,28.04,28.88,61.17,48.68,99.89,59.19v-11.08c-12.1-3.24-23.78-7.66-35.16-13.28-32.07-15.82-57.79-38.81-77.18-69.07,31.26,1.15,60.25,9.73,87.17,25.23,8.93,5.14,17.3,10.87,25.17,17.2v-13.17c-22.51-16.59-47.76-28.37-76.01-35.2,28.14-6.92,53.44-18.65,76.01-35.27v-13.2c-7.98,6.42-16.49,12.24-25.58,17.45-26.84,15.38-55.72,23.82-86.83,25.06,13.3-21.46,30.49-39.07,50.94-53.6,20.17-14.34,41.79-23.48,61.47-28.82v-11.1c-38.72,10.56-71.9,30.24-99.89,59.22,11.4-39.59,12.09-79.08,1.02-118.9,27.8,28.33,60.63,47.66,98.87,57.99v-11.04c-11.7-3.11-23.1-7.37-34.19-12.75-32.54-15.79-58.69-38.89-78.22-69.68,32.23,1.34,62.13,10.35,89.75,26.78,8.01,4.77,15.57,10.01,22.67,15.74v-13.05c-22.39-16.43-47.47-28.08-75.26-35.2,12.72-3.25,24.84-7.5,36.38-12.71h-30.34c-14.07,3.97-28.73,6.35-44.12,7.14,1.59-2.44,3.23-4.8,4.89-7.14h-14c-.23,.29-.46,.59-.69,.84-.14-.28-.27-.56-.41-.84h-13.8c1.48,2.15,2.94,4.33,4.35,6.56-14.71-.53-28.93-2.75-42.71-6.56h-30.68c11.41,5.11,23.39,9.28,35.94,12.5-39.6,10.2-73.55,29.75-102.16,59,6.79-23.89,9.53-47.69,7.99-71.5h-10.36c.12,1.85,.22,3.71,.29,5.58,1.23,33.62-5.9,65.46-21.57,96.44-13.16-25.42-20.17-51.53-21.57-79.08-.39-7.73-.32-15.37,.16-22.94h-10.15c-1.5,23.76,.97,47.53,7.59,71.41-28.49-29.16-62.33-48.7-101.81-58.92,12.42-3.22,24.26-7.39,35.55-12.49h-30.08c-14.03,3.94-28.69,6.33-44.06,7.2,1.57-2.46,3.2-4.85,4.85-7.2h-13.32c-.29,.58-.55,1.15-.85,1.73-.3-.58-.57-1.15-.86-1.73h-13.81c1.5,2.16,2.98,4.35,4.42,6.59-14.82-.55-29.13-2.77-42.95-6.59h-30.29c11.27,5.09,23.1,9.26,35.5,12.48-39.46,10.24-73.33,29.82-101.82,59.03,6.66-23.91,9.14-47.71,7.64-71.51h-10.18c2.32,35.45-4.71,69.14-21.35,100.99-15.29-29.15-22.42-60.08-21.67-92.76,.06-2.76,.21-5.5,.39-8.23h-10.39c-1.52,23.83,1.24,47.66,8.06,71.59-28.6-29.24-62.51-48.88-102.15-59.06,12.55-3.22,24.52-7.4,35.93-12.53h-30.73c-13.73,3.78-27.95,5.98-42.7,6.55,1.4-2.23,2.85-4.4,4.33-6.55h-13.78c-.29,.58-.56,1.16-.85,1.73-.29-.58-.57-1.15-.86-1.73h-13.4c1.66,2.32,3.29,4.68,4.88,7.1-15.35-.71-29.91-3.12-43.94-7.1h-30.51c11.53,5.2,23.64,9.43,36.36,12.66-39.74,9.93-73.73,29.57-102.36,58.88,6.68-23.9,9.25-47.71,7.79-71.54h-10.37c.12,1.89,.22,3.78,.28,5.68,1.19,33.63-5.86,65.42-21.58,96.3-13.8-27.06-20.87-54.85-21.7-84.16-.17-6-.06-11.93,.3-17.82H15.68c-.08,1.43-.16,2.86-.23,4.29-1.28,29.24,3.66,57.44,14.54,84.56,2.93,7.32,6.73,14.29,9.88,21.53,.62,1.43,.67,3.71-.05,5.05-16.2,30.47-24.47,62.98-24.56,97.43-.08,33.85,7.8,65.89,23.72,95.83,1.73,3.25,1.85,5.66,.11,8.93-12.29,23.06-19.65,47.36-22.52,72.74h10.22c2.71-22.73,9.45-44.71,20.37-66.22,10.94,21.46,17.75,43.36,20.39,66.22h10.38c-1.33-11.95-3.66-23.91-6.99-35.89,13.98,14.3,29.26,26.23,45.85,35.89h22.05c-1.59-.74-3.18-1.5-4.76-2.29-31.79-15.8-57.42-38.61-76.51-68.85,32.44,1.29,62.41,10.48,90.11,27.02,19.63,11.72,36.5,26.32,50.9,44.12h16.45c-10.2-23.45-15.31-47.59-15.76-72.81-.58-32.51,6.65-63.32,21.81-93.24,13.41,26.6,20.46,53.88,21.39,82.73,.93,28.94-4.28,56.5-15.82,83.32h16.48c14.58-17.96,31.87-32.88,52.03-44.79,27.38-16.17,56.95-25.17,88.99-26.33-13.86,22.5-31.97,40.74-53.64,55.59-8.91,6.11-18.26,11.26-27.61,15.53h22.38c16.47-9.69,31.65-21.62,45.56-35.86-3.41,11.97-5.79,23.92-7.14,35.86h11.03c3.32-27.81,11.14-55.1,20.1-65.61,10.76,20.9,17.35,42.75,20.08,65.61h10.31c-1.27-11.91-3.55-23.83-6.88-35.78,13.86,14.19,28.99,26.09,45.42,35.78h22.2c-6.2-2.89-12.29-6.11-18.27-9.7-25.77-15.46-46.86-35.81-62.95-61.4,33.29,1.34,63.96,10.9,92.19,28.22,18.87,11.57,35.13,25.82,48.68,42.88h17.08c-8.9-20.51-14.04-41.75-15.51-63.96-2.34-35.39,4.52-68.95,20.79-101.33,26.69,49.48,28.37,113.97,5.51,165.29h17.36c18.25-22.69,40.82-40.34,67.59-53.29,26.73-12.93,62.56-19.23,73.56-17.57-16.3,25.01-37.01,45.11-62.27,60.5-6.33,3.86-12.79,7.3-19.37,10.36h22.02c16.72-9.86,31.76-21.88,45.56-35.76-3.32,11.94-5.59,23.86-6.86,35.76h10.34c2.71-22.52,9.49-44.26,20.4-65.25,10.97,20.78,17.7,42.55,20.39,65.25h10.41c-1.35-11.93-3.74-23.87-7.17-35.84,13.92,14.21,29.11,26.14,45.61,35.84h22.32c-7.07-3.28-14-7-20.78-11.18-24.68-15.21-44.9-35.03-60.43-59.86,23.83,.51,46.46,6.02,68.15,15.56,25.87,11.38,56.58,35.13,73.63,55.48h15.74c-9.82-22.87-15.04-46.29-15.83-70.83-1.07-33.18,5.96-64.57,21.4-95.23,15.28,30.34,22.52,61.49,21.75,94.39-.58,24.85-5.72,48.6-15.72,71.68h16.65c12.54-15.85,27.5-29.24,44.7-40.37,17.49-11.31,35.98-19.55,55.51-24.69v-11.17ZM806.06,51.11c34.75-23.82,77.19-33.27,99.76-32.64-19.2,29.23-43.95,51.52-74.41,67.5-28.42,14.91-61.96,21.51-79.86,20.92,14.5-22.6,32.75-40.85,54.51-55.77Zm85.9,121.75c-28.29-30.23-62.48-49.92-102.59-59.95,19.42-5.23,37.89-12.4,55.2-22.41,17.27-9.99,32.82-22.22,46.93-36.5-11.05,39.76-10.77,79.24,.46,118.87Zm-71.72-38.54c35.36,15.54,63.21,39.84,83.86,72.71-28.71-1.23-55.61-8.78-80.83-22.26-29.47-15.75-53.28-37.68-72.13-66.61,24.72,1.15,47.39,6.62,69.1,16.16Zm-54.34,20.08c28.97,29.36,63.25,48.6,103.15,58.62-39.93,10.06-74.43,29.38-103.33,58.96,10.96-39.26,10.93-78.37,.18-117.58Zm-103.29-112.45c28.44,15.74,51.51,37.27,69,64.87-29.04-1-56.16-8.61-81.62-22.14-29.62-15.74-53.5-37.77-72.46-66.76,30.88,1.54,58.91,9.55,85.08,24.03Zm55.92,230.62c-29.1-29.58-63.54-49.45-103.85-59.52,19.78-5.24,38.54-12.49,56.16-22.61,17.52-10.06,33.19-22.52,47.65-36.88-5.34,19.54-8.29,39.27-8.29,59.41,0,20.19,2.96,39.96,8.33,59.6Zm-57.55-88.52c-25.43,13.8-52.62,21.52-81.73,22.57,17.15-26.99,39.79-47.9,67.42-63.61,31.12-17.69,69.58-24.98,84.67-23.77-18.18,27.66-41.58,49.18-70.36,64.8Zm-69.24-130.89c28.8,29.47,62.97,49.27,103.05,59.44-40.16,10.43-74.56,30.39-103.42,60.22,5.49-19.78,8.54-39.68,8.57-59.96,.02-20.18-2.72-40.02-8.19-59.69Zm-130.79-3.5c29.4-19.26,61.68-29.81,97.84-31.78-16.26,25.1-36.43,44.9-60.99,60.19-28.43,17.7-59.37,27.49-93.04,28.74,14.55-23.28,33.39-42.21,56.19-57.15Zm-43.12,103.82c29.09,29.63,63.56,49.44,103.95,59.54-40.29,10.08-74.82,29.87-103.91,59.46,11.2-39.77,11.06-79.28-.04-119.01Zm57.4,30.5c-28.71-15.59-51.98-37.12-69.77-64.84,22.75,.62,44.44,5.75,65.23,14.63,36.11,15.42,64.95,39.6,86.37,72.82-29.13-1.06-56.36-8.78-81.83-22.61Zm-33.64-71.34c39.95-10.18,74.16-29.99,102.98-59.58-11.08,39.98-11.02,79.76,.35,119.7-28.86-29.76-63.12-49.7-103.33-60.12ZM303.76,36.11c37,17.07,66.37,46.43,80.89,71.22-28.92-1.41-55.53-8.73-80.54-21.84-30.23-15.85-54.64-38.12-73.94-67.56,26.38,1.32,50.51,7.53,73.6,18.18Zm-59.05,17.78c28.63,29.26,62.61,48.89,102.34,59-40.1,10.02-74.39,29.65-102.66,59.96,11.29-39.69,11.39-79.19,.31-118.96Zm-131.85-3.57c29.52-19.55,61.98-30.24,97.53-31.66-16.82,26.75-38.96,47.7-66.18,63.22-26.78,15.27-55.56,23.77-86.59,24.98,14.23-23.04,32.82-41.69,55.25-56.54Zm85.24,122.58c-28.77-29.73-62.94-49.79-103.01-60.1,39.53-10.16,73.35-29.7,101.93-58.88-11.01,39.78-10.42,79.33,1.08,118.98Zm-68.66-36.78c33.84,15.8,60.89,39.43,81.14,70.96-27.08-.92-52.56-7.57-76.63-19.58-31.68-15.81-57.23-38.53-76.43-68.64,25.23,.64,49.15,6.63,71.93,17.26Zm-58.24,18.17c28.78,29.37,62.93,48.98,103,58.74-40,9.8-74.19,29.31-102.95,58.67,10.9-39.24,10.76-78.21-.06-117.41Zm-45.66,62.82c-.63-32.61,6.52-63.48,21.74-93.51,14.66,28.74,21.74,58.3,21.78,89.43,.05,31.15-7.09,60.7-21.79,89.41-14.08-27.36-21.16-55.56-21.73-85.33Zm171.52,155.13c-28.53-29.24-62.46-48.78-102.01-58.94,40.12-10.3,74.3-30.32,103.04-60.03-11.5,39.65-12.05,79.15-1.03,118.96Zm-37.98-99.28c-30.47,21.27-64.31,32.77-101.62,34.45,16.94-26.98,39.36-48.07,66.9-63.72,26.68-15.15,55.35-23.53,87.13-25.23-14.32,22.17-31.64,40-52.4,54.49Zm61.98-71.19c-15.09-29.8-22.31-60.5-21.79-92.88,.48-29.78,7.44-58.06,21.63-85.48,15.36,30.49,22.47,61.82,21.6,94.96-.77,29.11-7.84,56.6-21.43,83.4Zm62.74-49.38c30.16-20.8,63.61-32.1,100.42-33.73-16.57,26.51-38.46,47.33-65.33,62.89-26.76,15.49-55.62,24.1-86.74,25.57,13.46-21.87,30.59-40.19,51.65-54.72Zm86.77,119.51c-28.86-29.45-63.29-48.81-103.33-58.86,39.92-10.02,74.35-29.33,103.26-58.76-10.78,39.28-10.87,78.33,.07,117.62Zm-78.99,63.79c-17.24,9.97-32.74,22.21-46.8,36.51,5.21-19.69,8.16-39.46,8.05-59.67-.11-20.09-3.14-39.73-8.46-59.29,28.3,30.26,62.58,49.96,102.71,59.97-19.64,5.07-38.13,12.44-55.5,22.49Zm7.47-52.44c-27.82-15.57-49.91-37.13-66.89-64.21,30.52,1.33,58.91,9.72,85.34,24.72,27.54,15.63,49.88,36.77,66.82,63.69-30.48-1.16-58.81-9.4-85.26-24.2Zm95.44,19.25c-11.1-21.35-17.51-43.08-20.37-65.91-5.53-44.22,5.83-86.45,20.5-112.66,13.32,26.02,20.32,52.98,21.46,81.42,1.35,33.86-5.73,65.93-21.59,97.16Zm150.1,70.45c-28.77-29.48-62.95-49.3-103.01-59.47,19.62-5.39,38.3-12.69,55.78-22.88,17.55-10.22,33.21-22.84,47.61-37.36-5.48,19.73-8.54,39.64-8.58,59.93-.04,20.2,2.76,40.05,8.21,59.78Zm-54.4-90.22c-26.21,14.76-54.39,22.93-84.7,24.3,11.9-19.4,27.27-35.51,45.26-49.21,36.73-27.97,79.9-38.46,107.01-38.48-17.67,26.89-40.06,47.9-67.56,63.38Zm77.74-81.77c-14.66-29.12-21.66-59.33-21.16-91.24,.47-29.8,7.5-58.02,21.36-85.58,12.35,24.36,19.11,49.22,20.99,75.42,2.9,40.38-8.16,78.34-21.19,101.41Zm23.82,172.02c11.13-40.08,10.96-79.82-.43-119.79,28.89,29.81,63.19,49.9,103.5,60.24-40.06,10.14-74.29,30.02-103.07,59.54Zm57.9-88.32c-29.11-15.6-52.64-37.31-71.42-65.77,32.48,1.8,61.78,10.63,88.9,26.64,26.08,15.39,47.41,35.77,63.73,61.46-28.89-1.21-55.9-8.77-81.21-22.33Zm71.87-47.94c-6.2-47.24,8.12-91.91,20.64-112.62,13.9,27.4,20.93,55.89,21.38,85.98,.48,32.19-6.58,62.66-21.65,92.47-11.02-21.34-17.38-43.03-20.37-65.83Zm170.04,135.43c-28.61-29.25-62.55-48.84-102.29-58.96,40.08-10.02,74.37-29.68,102.65-59.98-11.32,39.68-11.39,79.19-.36,118.94Zm-43.73-95.31c-29.08,18.84-60.98,29.1-95.77,30.62,16.89-26.94,39.19-48.02,66.62-63.63,26.45-15.06,54.9-23.42,85.5-24.84-14.57,23.49-33.23,42.87-56.35,57.85Zm67.38-75.03c-14.35-28.67-21.45-58.02-21.48-89.08-.02-31.19,7.15-60.63,21.7-89.34,14.55,28.27,21.56,57.44,21.63,88.18,.08,31.47-7.13,61.29-21.85,90.25Z"/></g></g><text class="cls-9" transform="translate(54.85 307.35)"><tspan class="cls-16" x="0" y="0">IN</tspan><tspan class="cls-3" x="84.44" y="0">T</tspan><tspan class="cls-16" x="127.15" y="0">UIT</tspan><tspan class="cls-12" x="253.99" y="0">I</tspan><tspan class="cls-15" x="286.41" y="0">V</tspan><tspan class="cls-10" x="333.79" y="0">E</tspan><tspan class="cls-2" x="380.15" y="0"> </tspan><tspan class="cls-6" x="401.77" y="0">W</tspan><tspan class="cls-2" x="455.39" y="0">ELLNESS </tspan><tspan class="cls-6" x="730.93" y="0">C</tspan><tspan class="cls-5" x="769.23" y="0">OA</tspan><tspan class="cls-2" x="851.01" y="0">CH</tspan></text><text class="cls-8" transform="translate(60.81 210.53)"><tspan class="cls-11" x="0" y="0">S</tspan><tspan class="cls-13" x="163.08" y="0">a</tspan><tspan class="cls-7" x="217.43" y="0">r</tspan><tspan class="cls-13" x="261.73" y="0">ah Murphy</tspan></text></g></svg>